<?xml version="1.0" encoding="UTF-8"?>
<svg version="1.1" xmlns="http://www.w3.org/2000/svg" width="512" height="512">
<path d="M0 0 C1.21601898 -0.00855011 1.21601898 -0.00855011 2.456604 -0.01727295 C4.17108883 -0.02668033 5.88559139 -0.03323989 7.60009766 -0.03710938 C10.15431872 -0.0466919 12.70769023 -0.07770326 15.26171875 -0.109375 C30.0863045 -0.20505679 44.63554776 1.48696594 58.953125 5.453125 C59.72245361 5.66219482 60.49178223 5.87126465 61.28442383 6.08666992 C109.20046163 19.5249339 149.89311911 50.66246202 174.57788086 93.99121094 C185.43120891 113.58217 192.53667263 134.18287155 196.453125 156.203125 C196.68 157.41226563 196.906875 158.62140625 197.140625 159.8671875 C200.41316824 180.72965065 199.70648276 203.55462916 195.453125 224.203125 C195.28151855 225.0384375 195.10991211 225.87375 194.93310547 226.734375 C190.27734889 248.5694157 181.60673639 268.94713867 169.60546875 287.75 C168.26923829 290.04371681 168.26923829 290.04371681 168.65625 292.11328125 C169.66288993 294.7532438 171.03169746 296.1223611 173.05078125 298.09375 C173.76943359 298.80273438 174.48808594 299.51171875 175.22851562 300.2421875 C176.36063477 301.33660156 176.36063477 301.33660156 177.515625 302.453125 C178.27423828 303.19820313 179.03285156 303.94328125 179.81445312 304.7109375 C181.68744707 306.54859194 183.56708111 308.37888224 185.453125 310.203125 C185.9265332 309.79682861 186.39994141 309.39053223 186.88769531 308.97192383 C187.51256836 308.43591553 188.13744141 307.89990723 188.78125 307.34765625 C189.3990332 306.81760986 190.01681641 306.28756348 190.65332031 305.74145508 C196.54017893 300.70983596 200.12244019 298.82396879 207.8828125 298.92578125 C212.03836746 299.374177 214.11031005 300.66258564 217.453125 303.203125 C221.66175133 308.6300379 222.67979862 312.40291639 222.453125 319.203125 C222.1355323 321.53865287 221.80440266 323.87242563 221.453125 326.203125 C222.22052002 326.73715942 222.22052002 326.73715942 223.00341797 327.28198242 C234.49145353 335.28317271 245.90789471 343.37184848 257.23535156 351.59863281 C259.46594839 353.21240233 261.70433161 354.81475076 263.9453125 356.4140625 C274.00795866 363.60758006 283.8461371 371.04449772 293.55566406 378.70800781 C295.15905341 379.9714093 296.77009328 381.22509239 298.3828125 382.4765625 C305.06325105 387.70565977 311.33245559 393.33677704 317.453125 399.203125 C318.19820313 399.90953125 318.94328125 400.6159375 319.7109375 401.34375 C324.03404291 405.78552889 326.96888251 410.59591796 329.765625 416.078125 C330.09143555 416.71387451 330.41724609 417.34962402 330.75292969 418.00463867 C335.208936 427.21920532 337.00048064 436.31721578 336.890625 446.515625 C336.88232666 447.51964355 336.87402832 448.52366211 336.86547852 449.55810547 C336.4688755 467.08485354 329.57533015 482.09855284 317.27734375 494.54296875 C304.44900498 506.62609282 288.50697413 512.79132965 270.953125 512.578125 C269.52033203 512.59552734 269.52033203 512.59552734 268.05859375 512.61328125 C251.17998305 512.54476186 235.14264215 505.12060882 223.30859375 493.234375 C213.81851541 483.29207833 205.43463548 472.49322873 197.18896484 461.51416016 C195.38213328 459.10860915 193.56832261 456.70842774 191.75390625 454.30859375 C184.06759018 444.12226796 176.52346483 433.84233214 169.08544922 423.47363281 C167.36077066 421.07466323 165.62860638 418.68124764 163.89453125 416.2890625 C163.30816895 415.47969238 162.72180664 414.67032227 162.11767578 413.83642578 C161.00085584 412.2952332 159.88338682 410.75451068 158.76513672 409.21435547 C155.90618591 405.26385487 153.12703282 401.28131535 150.453125 397.203125 C149.6796875 397.38230469 148.90625 397.56148438 148.109375 397.74609375 C137.58050957 399.89617147 137.58050957 399.89617147 132.20703125 397.39453125 C128.04584213 394.56788831 125.03956716 390.96245147 123.453125 386.203125 C122.91663221 380.20884983 122.92167924 375.27957828 126.453125 370.203125 C129.02150977 367.42704047 131.6922073 364.78697672 134.453125 362.203125 C133.05965124 359.05107519 131.42827421 356.94140727 128.9765625 354.53125 C128.30625 353.86738281 127.6359375 353.20351563 126.9453125 352.51953125 C126.24664062 351.83761719 125.54796875 351.15570313 124.828125 350.453125 C123.76851563 349.40705078 123.76851563 349.40705078 122.6875 348.33984375 C120.94713797 346.62300012 119.20227519 344.91100668 117.453125 343.203125 C112.69815549 344.90065849 108.50238379 347.38967845 104.140625 349.890625 C61.36189098 373.92956112 10.0534785 380.67853571 -37.546875 368.203125 C-73.77100867 357.87918667 -108.81999189 338.14152704 -132.546875 308.203125 C-133.2996875 307.27628906 -134.0525 306.34945313 -134.828125 305.39453125 C-151.63553077 284.37951695 -163.24940716 260.63617717 -170.296875 234.703125 C-170.48338623 234.02983154 -170.66989746 233.35653809 -170.86206055 232.6628418 C-174.54560005 218.34016936 -176.05283808 203.90760605 -175.93798828 189.15087891 C-175.92187342 186.70288444 -175.93797919 184.25653979 -175.95703125 181.80859375 C-175.97863034 166.48566362 -173.91938984 151.56783599 -169.671875 136.828125 C-169.40995361 135.9002417 -169.14803223 134.9723584 -168.87817383 134.01635742 C-166.8301484 126.89957791 -164.53302585 119.98765973 -161.546875 113.203125 C-161.23379395 112.49091797 -160.92071289 111.77871094 -160.59814453 111.04492188 C-150.39061767 88.06965862 -136.34228413 68.93960893 -118.546875 51.203125 C-117.7734375 50.37748047 -117.7734375 50.37748047 -116.984375 49.53515625 C-91.07655708 22.14890307 -52.00330756 6.9485265 -15.546875 1.203125 C-13.97220459 0.94511108 -13.97220459 0.94511108 -12.36572266 0.68188477 C-8.2132921 0.16130451 -4.17894481 0.02345037 0 0 Z " fill="#415A6B" transform="translate(175.546875,-0.203125)"/>
<path d="M0 0 C40.13387511 -1.74086823 76.43528196 13.79574013 105.78320312 40.65966797 C114.53622895 49.06682955 121.76703269 57.94460251 128.35351562 68.12841797 C128.89621094 68.94697266 129.43890625 69.76552734 129.99804688 70.60888672 C137.32875488 82.1562025 142.03366754 94.92026699 145.35351562 108.12841797 C145.72605469 109.35431641 146.09859375 110.58021484 146.48242188 111.84326172 C156.27498817 146.14872436 147.96086086 184.49825652 131.35351562 215.12841797 C130.86109375 216.04107422 130.36867188 216.95373047 129.86132812 217.89404297 C114.05883752 245.57072144 87.59380771 267.69990172 57.84179688 278.82373047 C55.80131347 279.58691239 53.77089024 280.38050702 51.77148438 281.24560547 C21.72280784 293.76993268 -16.02697901 290.46117231 -45.89648438 279.69091797 C-47.82830321 278.87159643 -49.74542838 278.01678609 -51.64648438 277.12841797 C-52.79890625 276.59345703 -53.95132813 276.05849609 -55.13867188 275.50732422 C-70.88926804 267.99654478 -83.91431127 257.95269418 -96.64648438 246.12841797 C-97.25105469 245.57798828 -97.855625 245.02755859 -98.47851562 244.46044922 C-121.3769894 222.74175629 -137.41598578 187.15381234 -138.79882812 155.65869141 C-138.89925703 151.73091696 -138.94433642 147.80743261 -138.95898438 143.87841797 C-138.96454346 142.62335449 -138.97010254 141.36829102 -138.97583008 140.07519531 C-138.88555476 128.34248979 -137.2897147 117.20428569 -134.02148438 105.94091797 C-133.76351074 105.05017578 -133.50553711 104.15943359 -133.23974609 103.24169922 C-121.80774509 65.25643099 -95.42203081 35.4163673 -61.29101562 16.01513672 C-41.98252681 5.76419575 -21.68411888 1.05219986 0 0 Z " fill="#89D6F7" transform="translate(181.646484375,42.87158203125)"/>
<path d="M0 0 C5.28410649 2.75642784 8.08002087 6.76740637 9.9296875 12.31640625 C10.11408241 17.11067388 9.64322703 21.5821281 8.9296875 26.31640625 C9.44128418 26.6724292 9.95288086 27.02845215 10.47998047 27.39526367 C21.96801603 35.39645396 33.38445721 43.48512973 44.71191406 51.71191406 C46.94251089 53.32568358 49.18089411 54.92803201 51.421875 56.52734375 C61.48452116 63.72086131 71.3226996 71.15777897 81.03222656 78.82128906 C82.63561591 80.08469055 84.24665578 81.33837364 85.859375 82.58984375 C92.53981355 87.81894102 98.80901809 93.45005829 104.9296875 99.31640625 C105.67476562 100.0228125 106.41984375 100.72921875 107.1875 101.45703125 C111.51060541 105.89881014 114.44544501 110.70919921 117.2421875 116.19140625 C117.73090332 117.14503052 117.73090332 117.14503052 118.22949219 118.11791992 C122.6854985 127.33248657 124.47704314 136.43049703 124.3671875 146.62890625 C124.35888916 147.6329248 124.35059082 148.63694336 124.34204102 149.67138672 C123.945438 167.19813479 117.05189265 182.21183409 104.75390625 194.65625 C91.92556748 206.73937407 75.98353663 212.9046109 58.4296875 212.69140625 C56.99689453 212.70880859 56.99689453 212.70880859 55.53515625 212.7265625 C38.65654555 212.65804311 22.61920465 205.23389007 10.78515625 193.34765625 C1.29507791 183.40535958 -7.08880202 172.60650998 -15.33447266 161.62744141 C-17.14130422 159.2218904 -18.95511489 156.82170899 -20.76953125 154.421875 C-28.45584732 144.23554921 -35.99997267 133.95561339 -43.43798828 123.58691406 C-45.16266684 121.18794448 -46.89483112 118.79452889 -48.62890625 116.40234375 C-49.50844971 115.18828857 -49.50844971 115.18828857 -50.40576172 113.94970703 C-51.52258166 112.40851445 -52.64005068 110.86779193 -53.75830078 109.32763672 C-56.61725159 105.37713612 -59.39640468 101.3945966 -62.0703125 97.31640625 C-62.84375 97.49558594 -63.6171875 97.67476563 -64.4140625 97.859375 C-74.94292793 100.00945272 -74.94292793 100.00945272 -80.31640625 97.5078125 C-84.47759537 94.68116956 -87.48387034 91.07573272 -89.0703125 86.31640625 C-89.60671323 80.32315967 -89.62161351 75.37431981 -86.0703125 70.31640625 C-82.14370496 65.99075322 -77.93046314 62.04916153 -73.49902344 58.24951172 C-68.65269598 54.01387505 -64.11062818 49.50056949 -59.56640625 44.9453125 C-58.6842897 44.06415268 -57.80217316 43.18299286 -56.89332581 42.27513123 C-54.56798441 39.95063875 -52.24507632 37.62374718 -49.92297363 35.29602051 C-48.50886426 33.87995947 -47.09282129 32.46586304 -45.67602539 31.05249023 C-42.9284453 28.31112369 -40.18439144 25.56627591 -37.44140625 22.8203125 C-36.18800697 21.56994957 -36.18800697 21.56994957 -34.9092865 20.29432678 C-30.63227342 16.00034476 -26.50743667 11.6445776 -22.5894928 7.01914978 C-16.48250451 0.17425137 -9.10434549 -3.00615181 0 0 Z " fill="#F26F59" transform="translate(388.0703125,299.68359375)"/>
<path d="M0 0 C1.12921875 -0.01224609 2.2584375 -0.02449219 3.421875 -0.03710938 C17.05829008 -0.06078371 33.91883516 2.43607142 44.6640625 11.5859375 C48.16536697 15.12173758 50.82323539 18.18170632 51.875 23.125 C50.62547964 29.24764976 47.42771774 33.6562362 42.4375 37.375 C24.02279241 48.61992127 -1.09791382 49.77051944 -21.60522461 44.89208984 C-31.52912063 42.34297389 -40.96696806 38.39095607 -47.60546875 30.24609375 C-49.78579527 26.32448257 -49.67871763 22.49532099 -48.75 18.1875 C-47.08783767 15.39935673 -46.13917783 14.16338404 -43.75 12.1875 C-43.16476563 11.68605469 -42.57953125 11.18460938 -41.9765625 10.66796875 C-30.07255288 1.66014538 -14.42219384 0.0081206 0 0 Z " fill="#FDFEFE" transform="translate(185.75,76.8125)"/>
<path d="M0 0 C5.05786842 0.47276812 7.87083861 1.9861321 11.875 5.0625 C12.84179688 5.79597656 13.80859375 6.52945312 14.8046875 7.28515625 C15.89136719 8.13400391 15.89136719 8.13400391 17 9 C16.41746666 12.22618556 15.51028336 13.86564015 13.20449829 16.17645264 C12.61005417 16.77935623 12.01561005 17.38225983 11.40315247 18.00343323 C10.74755844 18.65295456 10.09196442 19.30247589 9.41650391 19.97167969 C8.72867325 20.6647673 8.04084259 21.35785492 7.33216858 22.07194519 C5.05446215 24.36286545 2.76594449 26.6426267 0.4765625 28.921875 C-1.10709882 30.50755641 -2.69031451 32.09368299 -4.27310181 33.68023682 C-7.59224662 37.00380669 -10.91676336 40.32188366 -14.24511719 43.63623047 C-18.51835489 47.89236259 -22.77796689 52.16183752 -27.03366661 56.43549728 C-30.30010911 59.71276062 -33.57363895 62.98286913 -36.84938431 66.2508316 C-38.42332066 67.82276198 -39.99501851 69.39693693 -41.56446457 70.97335052 C-43.75505347 73.17152717 -45.95497453 75.3599079 -48.15771484 77.54589844 C-48.80926041 78.20351669 -49.46080597 78.86113495 -50.13209534 79.53868103 C-50.73217911 80.13030533 -51.33226288 80.72192963 -51.95053101 81.33148193 C-52.47004522 81.84986507 -52.98955944 82.36824821 -53.52481651 82.90233994 C-55 84 -55 84 -58 84 C-59.7181558 81.94652191 -61.20283838 79.9616012 -62.6875 77.75 C-63.10322266 77.16347656 -63.51894531 76.57695312 -63.94726562 75.97265625 C-66.24297302 72.61768156 -67 71.17669547 -67 67 C-65.71334839 65.5368042 -65.71334839 65.5368042 -63.82373047 64.06542969 C-59.98004112 60.88777771 -56.4164345 57.54071831 -52.89111328 54.02050781 C-52.33310972 53.46456814 -51.77510616 52.90862846 -51.20019341 52.33584213 C-49.40472471 50.54376503 -47.61238801 48.74859481 -45.8203125 46.953125 C-44.55872935 45.6922166 -43.29699789 44.43145658 -42.03512573 43.1708374 C-39.40623086 40.54340877 -36.77913312 37.91420011 -34.15332031 35.28369141 C-30.78746413 31.91210907 -27.41709826 28.54507602 -24.0453968 25.17934036 C-21.44597714 22.58353031 -18.84893896 19.9853482 -16.2526207 17.38643646 C-15.01019556 16.14334469 -13.76702837 14.9009941 -12.52310562 13.65940094 C-10.79048038 11.92931195 -9.06108711 10.19605586 -7.33251953 8.46191406 C-6.81928635 7.95070511 -6.30605316 7.43949615 -5.77726746 6.91279602 C-3.57120649 4.69352186 -1.74404246 2.6160637 0 0 Z " fill="#F05540" transform="translate(393,326)"/>
<path d="M0 0 C5.04345768 2.23576682 8.44365888 6.03672918 12.3125 9.875 C13.06595703 10.59558594 13.81941406 11.31617188 14.59570312 12.05859375 C15.30275391 12.75855469 16.00980469 13.45851563 16.73828125 14.1796875 C17.38837158 14.81632324 18.03846191 15.45295898 18.70825195 16.10888672 C20 18 20 18 19.85748291 19.82015991 C18.67415104 22.82835311 16.86534031 24.49358241 14.57202148 26.76855469 C14.11345764 27.22755661 13.6548938 27.68655853 13.18243408 28.1594696 C11.66899112 29.670827 10.14520986 31.17128789 8.62109375 32.671875 C7.56811838 33.7192536 6.51580457 34.76729769 5.46412659 35.815979 C2.69730031 38.57136295 -0.0784171 41.31761824 -2.8560791 44.06207275 C-5.69007411 46.86535382 -8.51557253 49.67716993 -11.34179688 52.48828125 C-16.88624795 58.00057896 -22.44011909 63.50326105 -28 69 C-31.3247945 67.42411996 -33.51631617 65.7182851 -36.109375 63.0859375 C-36.86347656 62.32539063 -37.61757813 61.56484375 -38.39453125 60.78125 C-39.17183594 59.9871875 -39.94914062 59.193125 -40.75 58.375 C-41.54277344 57.57320313 -42.33554687 56.77140625 -43.15234375 55.9453125 C-45.10614493 53.96797154 -47.05512103 51.98611091 -49 50 C-45.95766543 46.87718039 -42.8934511 44.02982538 -39.4375 41.375 C-33.85481359 36.96194032 -28.60910694 32.23437126 -23.4375 27.35400391 C-22.11251809 26.10598256 -20.77553776 24.87073223 -19.4375 23.63671875 C-11.96151424 16.50817464 -6.02702279 8.34670167 0 0 Z " fill="#364A5E" transform="translate(341,292)"/>
</svg>
